<svg width="9" height="9" viewBox="0 0 9 9" fill="none" xmlns="http://www.w3.org/2000/svg">
<path d="M5.59375 0.179199C4.78208 0.179199 4.00365 0.501635 3.42971 1.07557C2.85577 1.64951 2.53333 2.42794 2.53333 3.23962C2.53333 3.99766 2.81113 4.69449 3.26783 5.23124L3.14071 5.35837H2.76875L0.414584 7.71253L1.12083 8.41878L3.475 6.06462V5.69266L3.60213 5.56553C4.13888 6.02224 4.83571 6.30003 5.59375 6.30003C6.40542 6.30003 7.18385 5.9776 7.75779 5.40366C8.33173 4.82972 8.65417 4.05129 8.65417 3.23962C8.65417 2.42794 8.33173 1.64951 7.75779 1.07557C7.18385 0.501635 6.40542 0.179199 5.59375 0.179199ZM5.59375 1.12087C6.77083 1.12087 7.7125 2.06253 7.7125 3.23962C7.7125 4.4167 6.77083 5.35837 5.59375 5.35837C4.41667 5.35837 3.475 4.4167 3.475 3.23962C3.475 2.06253 4.41667 1.12087 5.59375 1.12087Z" fill="#1f1f1f"/>
</svg>
